<svg width="202" height="168" viewBox="0 0 202 168" fill="none" xmlns="http://www.w3.org/2000/svg">
<g opacity="0.5">
<mask id="mask0_2926_48927" style="mask-type:alpha" maskUnits="userSpaceOnUse" x="0" y="0" width="203" height="168">
<rect width="202.5" height="168" fill="#D9D9D9"/>
</mask>
<g mask="url(#mask0_2926_48927)">
<path d="M0.735274 -2.29519L0.73527 44.0398L44.4452 69.2698L44.4452 19.6648L85.1553 -3.84019L85.1553 44.8949L128.115 20.0999L169.575 44.0248L169.575 89.4898C168.315 89.8198 167.385 90.9599 167.385 92.3249C167.385 92.5948 167.43 92.8499 167.505 93.0899L127.755 116.04L127.38 116.25L127.38 166.71L170.325 141.915L212.535 166.29L254.745 141.93L296.205 165.87L296.205 213.735L253.245 238.53L296.205 263.325L296.205 312.93L339.54 287.91L339.915 287.7L339.915 239.835L378.54 262.14C378.48 262.38 378.42 262.635 378.42 262.905C378.42 264.27 379.35 265.41 380.61 265.74L380.61 359.94L338.775 384.09L338.4 384.3L338.4 434.76L381.735 409.74L382.11 409.53L382.11 360.795L423.57 336.855L464.28 360.36L423.195 384.075L422.82 384.285L422.82 434.745L466.155 409.725L466.53 409.515L466.53 312.915L505.155 335.22C505.095 335.46 505.035 335.715 505.035 335.985C505.035 337.35 505.965 338.49 507.225 338.82L507.225 385.155L548.685 409.095L507.975 432.6L507.225 432.165L507.225 433.035L506.475 433.47L507.225 433.905L507.225 482.625L547.305 505.8C547.245 506.04 547.185 506.295 547.185 506.565C547.185 508.185 548.505 509.505 550.125 509.505C551.745 509.505 553.065 508.185 553.065 506.565C553.065 505.2 552.135 504.06 550.875 503.73L550.875 458.265L593.835 433.455L551.625 409.095L592.71 385.38L593.085 385.17L593.085 336.435L593.835 336L593.085 335.565L593.085 286.83L551.655 262.905L592.74 239.175L593.115 238.965L593.115 188.505L549.78 213.525L549.405 213.735L549.405 261.615L549.375 261.615L549.375 311.19L510.015 333.915C509.655 333.555 509.19 333.285 508.68 333.15L508.68 286.815L467.22 262.89L508.305 239.175L508.68 238.965L508.68 190.215L548.01 167.505C548.55 168.045 549.285 168.375 550.095 168.375C551.715 168.375 553.035 167.055 553.035 165.435C553.035 164.07 552.105 162.93 550.845 162.6L550.845 68.4599L592.74 44.2649L593.115 44.0549L593.115 -6.40515L593.055 -6.36011L593.055 -54.2701L550.845 -78.6301L550.845 -79.5001L550.095 -79.0651L549.345 -79.5001L549.345 -78.6301L507.51 -54.4801L507.135 -54.2701L507.135 -3.81013L547.995 -27.4052C548.535 -26.8651 549.27 -26.5351 550.08 -26.5351C550.89 -26.5351 551.64 -26.8651 552.165 -27.4052L590.82 -5.08508L550.83 17.9999L550.83 17.9549L507.87 42.7499L464.91 17.9549L464.91 67.5749L423.12 91.7099L422.745 91.9198L422.745 138.255C421.485 138.585 420.555 139.725 420.555 141.09C420.555 142.71 421.875 144.03 423.495 144.03C425.115 144.03 426.435 142.71 426.435 141.09C426.435 140.82 426.39 140.565 426.315 140.325L466.065 117.375L466.44 117.165L466.44 69.3149L507.105 92.7899L507.105 189.405L465.69 213.315L422.73 188.52L422.73 238.11L383.37 260.835C383.01 260.475 382.545 260.205 382.035 260.07L382.035 213.735L341.91 190.575C341.97 190.335 342.03 190.08 342.03 189.81C342.03 189.54 341.985 189.285 341.91 189.045L381.66 166.095L382.035 165.885L382.035 68.4749L421.155 45.8849C421.695 46.6349 422.565 47.1299 423.555 47.1299C425.175 47.1299 426.495 45.8099 426.495 44.1899C426.495 42.8249 425.565 41.6849 424.305 41.3548L424.305 -6.39015L382.095 17.9699L382.095 -29.8952L338.385 -55.1251L338.385 -4.66512L379.8 19.2449L339.075 42.7649L299.7 20.0399C299.76 19.7999 299.82 19.5448 299.82 19.2748C299.82 17.6549 298.5 16.3349 296.88 16.3349C295.26 16.3349 293.94 17.6549 293.94 19.2748C293.94 20.6398 294.87 21.7799 296.13 22.1099L296.13 116.295L254.67 140.235L213.96 116.73L255.045 93.0149L255.42 92.8049L255.42 44.0699L256.17 43.6349L255.42 43.1999L255.42 -4.66513L297.255 -28.8152L297.63 -29.0251L297.63 -79.4851L254.295 -54.4652L253.92 -54.2552L253.92 -6.39017L213.21 -29.8952L213.21 -30.7652L212.46 -30.3302L169.5 -55.1252L169.5 -7.93516C168.99 -7.80015 168.525 -7.53019 168.165 -7.1702L128.805 -29.8952L128.805 -79.4851L86.5953 -55.1252L43.2603 -30.1202L42.8853 -29.9101L42.8853 17.9548L4.2603 -4.35015C4.3203 -4.5902 4.38023 -4.84514 4.38023 -5.11516C4.38023 -6.73516 3.06029 -8.05517 1.44023 -8.05517C-0.179764 -8.05517 -1.49977 -6.73516 -1.49977 -5.11516C-1.49977 -3.75017 -0.569718 -2.61016 0.69023 -2.28017L0.735274 -2.29519ZM464.97 408.66L424.26 432.165L424.26 385.17L464.97 361.665L464.97 408.66ZM550.92 214.605L591.63 191.1L591.63 238.095L550.92 261.6L550.92 214.605ZM508.65 -6.40516L508.65 -53.4001L549.36 -76.9052L549.36 -32.3101C548.1 -31.9801 547.17 -30.8402 547.17 -29.4751C547.17 -29.2051 547.215 -28.9501 547.29 -28.7101L508.665 -6.40516L508.65 -6.40516ZM550.86 -32.3101L550.86 -76.9052L591.57 -53.4001L591.57 -6.40515L552.945 -28.7101C553.005 -28.9501 553.065 -29.2051 553.065 -29.4751C553.065 -30.8402 552.135 -31.9801 550.875 -32.3101L550.86 -32.3101ZM86.6553 -4.68016L127.365 -28.1852L127.365 18.8098L86.6553 42.3148L86.6553 -4.66514L86.6553 -4.68016ZM171.06 -2.29517C171.57 -2.43018 172.035 -2.68516 172.395 -3.06016L211.005 19.2298L171.045 42.2998L171.045 -2.29517L171.06 -2.29517ZM211.77 68.3998L211.77 115.395L173.145 93.0899C173.205 92.8499 173.265 92.5948 173.265 92.3249C173.265 90.9599 172.335 89.8198 171.075 89.4898L171.075 44.8949L211.785 68.3998L211.77 68.3998ZM171.06 95.1748C171.57 95.0398 172.035 94.7698 172.395 94.4098L211.005 116.7L171.045 139.77L171.045 95.1748L171.06 95.1748ZM212.52 67.1099L171.81 43.6048L190.305 32.9248L212.52 20.0999L253.23 43.6048L234.735 54.2848L212.52 67.1099ZM211.77 17.9398L173.145 -4.36515C173.205 -4.60514 173.265 -4.86014 173.265 -5.13016C173.265 -5.40012 173.22 -5.65519 173.145 -5.89518L211.77 -28.2002L211.77 17.9398ZM128.865 117.135L168.225 94.4098C168.585 94.7698 169.05 95.0398 169.56 95.1748L169.56 140.64L128.85 164.145L128.85 117.15L128.865 117.135ZM338.385 192.63L338.385 237.225L297.675 213.72L297.675 166.725L336.3 189.03C336.24 189.27 336.18 189.525 336.18 189.795C336.18 191.16 337.11 192.3 338.37 192.63L338.385 192.63ZM338.385 186.96C337.875 187.095 337.41 187.365 337.05 187.725L298.44 165.435L338.385 142.365L338.385 186.96ZM296.925 215.025L337.635 238.53L317.67 250.05L296.925 262.02L256.215 238.515L296.925 215.01L296.925 215.025ZM338.385 286.83L297.675 310.335L297.675 263.34L338.385 239.835L338.385 286.83ZM380.595 408.66L339.885 432.165L339.885 385.17L380.595 361.665L380.595 408.66ZM382.095 312.06L395.415 304.365L422.805 288.555L422.805 335.55L382.095 359.055L382.095 312.06ZM424.305 239.835L444.66 251.58L465.015 263.325L465.015 310.32L444.66 298.575L424.305 286.83L424.305 239.835ZM465.015 359.055L424.305 335.55L424.305 288.555L444.66 300.3L465.015 312.045L465.015 359.04L465.015 359.055ZM508.725 338.82C509.235 338.685 509.7 338.43 510.06 338.055L549.42 360.78L549.42 407.775L508.71 384.27L508.71 338.805L508.725 338.82ZM508.725 481.755L508.725 434.76L549.435 458.265L549.435 503.73C548.925 503.865 548.46 504.12 548.1 504.495L508.74 481.77L508.725 481.755ZM550.185 456.96L509.475 433.455L549.435 410.385L550.185 409.95L550.935 410.385L590.835 433.455L550.125 456.96L550.185 456.96ZM591.585 384.3L550.875 407.805L550.875 360.81L591.585 337.29L591.585 384.285L591.585 384.3ZM591.585 334.695L550.875 311.19L550.875 264.195L591.585 287.7L591.585 334.695ZM550.125 312.495L590.835 336L572.34 346.68L550.125 359.505L510.75 336.78C510.81 336.54 510.87 336.285 510.87 336.015C510.87 335.745 510.825 335.49 510.75 335.25L550.125 312.51L550.125 312.495ZM507.165 333.165C506.655 333.3 506.19 333.555 505.83 333.93L466.47 311.205L466.47 264.21L507.18 287.715L507.18 333.18L507.165 333.165ZM507.165 238.11L466.455 261.615L466.455 214.62L507.165 191.115L507.165 238.11ZM549.33 162.615C548.07 162.945 547.14 164.085 547.14 165.45C547.14 165.72 547.185 165.975 547.26 166.215L508.635 188.52L508.635 141.525L549.345 118.02L549.345 162.615L549.33 162.615ZM508.62 92.7899L549.33 69.2848L549.33 116.28L508.62 139.785L508.62 92.7899ZM550.89 19.7099L591.6 -3.79517L591.6 43.1999L550.89 66.7049L550.89 19.7099ZM549.33 67.5599L508.62 91.0649L508.62 44.0699L549.33 20.5649L549.33 67.5599ZM464.955 116.295L425.595 139.02C425.235 138.66 424.77 138.39 424.26 138.255L424.26 92.7899L464.97 69.2848L464.97 116.28L464.955 116.295ZM466.425 66.7199L466.425 20.5649L507.135 44.0699L507.135 91.0649L466.47 67.5899L466.47 66.7049L466.44 66.7049L466.425 66.7199ZM424.26 191.13L464.97 214.635L464.97 261.63L444.615 249.885L424.26 238.14L424.26 191.145L424.26 191.13ZM422.76 239.865L422.76 286.86L399.495 300.285L382.05 310.35L382.05 265.755C383.31 265.425 384.24 264.285 384.24 262.92C384.24 262.65 384.195 262.395 384.12 262.155L422.745 239.85L422.76 239.865ZM380.55 214.635L380.55 260.1C380.04 260.235 379.575 260.49 379.215 260.865L339.855 238.14L339.855 192.675C340.365 192.54 340.83 192.285 341.19 191.91L380.55 214.635ZM380.55 165.03L341.19 187.755C340.83 187.395 340.365 187.125 339.855 186.99L339.855 141.525L340.605 141.09L380.565 118.02L380.565 165.015L380.55 165.03ZM380.55 67.5749L339.84 91.0798L339.84 44.0849L380.55 20.5798L380.55 67.5749ZM339.84 92.8049L380.55 69.2998L380.55 116.295L339.84 139.8L339.84 92.8049ZM422.82 -3.78017L422.82 41.3548C421.56 41.6849 420.63 42.8249 420.63 44.1899C420.63 44.2799 420.645 44.3699 420.66 44.4599L382.125 66.7048L382.125 19.7099L422.835 -3.79518L422.82 -3.78017ZM339.915 -52.5152L380.625 -29.0102L380.625 17.9849L339.915 -5.52016L339.915 -52.5152ZM297.645 22.1099C298.155 21.9749 298.62 21.7199 298.98 21.3449L338.34 44.0699L338.34 91.0649L297.63 67.5598L297.63 22.1099L297.645 22.1099ZM338.355 92.8049L338.355 139.8L297.645 116.295L297.645 69.2998L338.355 92.8049ZM296.895 117.6L337.605 141.105L296.91 164.61L296.16 164.175L256.2 141.105L296.91 117.6L296.895 117.6ZM212.49 164.595L171.78 141.09L211.74 118.02L212.49 117.585L213.24 118.02L253.2 141.09L212.49 164.595ZM253.95 91.9198L213.24 115.425L213.24 68.4299L253.95 44.9248L253.95 91.9198ZM255.45 -53.4151L296.16 -76.9202L296.16 -29.9251L255.45 -6.4202L255.45 -53.4151ZM253.95 -4.68014L253.95 42.3149L213.24 18.8098L213.24 -28.1852L253.95 -4.68014ZM210.99 -29.4751L172.38 -7.18516C172.02 -7.54514 171.555 -7.81516 171.045 -7.95017L171.045 -52.5452L211.005 -29.4751L210.99 -29.4751ZM169.53 -2.26514L169.53 42.3298L128.82 18.8248L128.82 -28.1702L167.445 -5.86515C167.385 -5.62516 167.325 -5.37015 167.325 -5.10013C167.325 -3.73514 168.255 -2.59513 169.515 -2.26514L169.53 -2.26514ZM127.32 -76.8902L127.32 -29.9101L86.6103 -6.4052L86.6103 -53.4001L127.32 -76.9052L127.32 -76.8902ZM44.4153 -29.0401L85.1252 -52.5452L85.1252 -5.55015L44.4153 17.9548L44.4153 -29.0401ZM42.9153 19.6948L42.9153 66.6898L2.20524 43.1848L2.20524 -2.28017C2.71525 -2.41518 3.18028 -2.67022 3.54027 -3.04522L42.9003 19.6799L42.9153 19.6948Z" fill="#2699B2"/>
</g>
</g>
</svg>
