<svg width="138" height="226" viewBox="0 0 138 226" fill="none" xmlns="http://www.w3.org/2000/svg">
<path d="M109.048 53.9267C88.8855 78.3558 109.429 92.9067 115.975 109.589C125.775 134.569 114.186 171.403 92.4949 171.403C70.8042 171.403 54.251 148.627 22.2867 167.807C-9.67764 186.987 -1.11604 219.352 10.2998 233.138C21.7156 246.923 103.34 283.484 150.717 199.573C198.093 115.661 138.73 17.9648 109.048 53.9267Z" fill="#2E58A9"/>
<path d="M99.9202 13.2589C93.876 28.7559 96.4749 39.8454 108.812 50.3986C113.846 54.9044 119.47 58.7818 123.788 64.0991C132.285 74.7852 136.325 89.0925 135.697 102.915C135.145 115.012 129.881 127.903 117.553 130.605C109.47 132.711 101.124 131.723 92.8461 131.659C86.1916 131.562 79.4139 132.129 73.0961 134.502C60.4977 139.346 50.2856 150.007 44.1604 162.41C34.06 183.779 46.9571 203.963 62.1146 218.021C72.2287 227.369 85.7339 232.268 99.1479 232.244C134.066 232.22 161.235 203.591 174.158 171.571C193.478 124.673 191.984 74.31 162.933 32.2144C153.16 18.5648 140.369 5.31073 124.237 0.84862C113.496 -1.94558 104.069 2.15266 99.9202 13.2589ZM99.9202 13.2589C106.004 -2.55422 120.794 -2.32382 133.5 4.60214C168.116 24.7373 186.813 70.198 186.354 110.565C185.773 137.993 177.701 166.213 163.768 189.406C146.136 218.83 113.041 239.361 79.8578 227.317C67.3318 222.794 57.3659 212.747 49.7116 201.685C41.7924 190.111 38.9888 176.044 45.1601 162.912C51.0356 150.78 61.099 140.133 73.3782 135.337C79.5917 132.957 86.2577 132.359 92.841 132.407C101.073 132.415 109.568 133.346 117.687 131.163C130.223 128.299 135.522 115.266 136.014 102.932C136.536 89.0375 132.462 74.7104 123.905 63.9938C119.564 58.6753 113.93 54.8134 108.878 50.316C96.5194 39.8059 93.9296 28.7272 99.9202 13.2589Z" fill="#569AFF"/>
</svg>
